<svg xmlns="http://www.w3.org/2000/svg" viewBox="0 0 120 120">
<path d="M34 50 L30 18 L56 36 Z" fill="#F2A65A" stroke="#3B2A1A" stroke-width="4" stroke-linejoin="round"/><path d="M37 42 L35 26 L48 36 Z" fill="#F7C5C5"/>
<path d="M86 50 L90 18 L64 36 Z" fill="#F2A65A" stroke="#3B2A1A" stroke-width="4" stroke-linejoin="round"/><path d="M83 42 L85 26 L72 36 Z" fill="#F7C5C5"/>
<ellipse cx="60" cy="64" rx="34" ry="30" fill="#F2A65A" stroke="#3B2A1A" stroke-width="4" stroke-linejoin="round"/>
<path d="M54 36 L54 46 M60 35 L60 47 M66 36 L66 46" stroke="#C9762E" stroke-width="4" stroke-linecap="round"/>
<ellipse cx="60" cy="78" rx="16" ry="11" fill="#FFF3C4"/>
<path d="M56 72 L64 72 L60 77 Z" fill="#E97970" stroke="#3B2A1A" stroke-width="2.5" stroke-linejoin="round"/>
<path d="M54 80 Q57 84 60 80 Q63 84 66 80" fill="none" stroke="#3B2A1A" stroke-width="3" stroke-linecap="round"/>
<path d="M40 74 L22 70 M40 79 L22 82 M80 74 L98 70 M80 79 L98 82" stroke="#3B2A1A" stroke-width="2.5" stroke-linecap="round"/>
<circle cx="48" cy="62" r="4" fill="#3B2A1A"/><circle cx="49.4" cy="60.6" r="1.3" fill="#FFFFFF"/><circle cx="72" cy="62" r="4" fill="#3B2A1A"/><circle cx="73.4" cy="60.6" r="1.3" fill="#FFFFFF"/><circle cx="36" cy="72" r="4" fill="#F4A3A3"/><circle cx="84" cy="72" r="4" fill="#F4A3A3"/>
</svg>
