<svg xmlns="http://www.w3.org/2000/svg" viewBox="0 0 120 120">
<circle cx="96.0" cy="62.0" r="14" fill="#D98B3A" stroke="#3B2A1A" stroke-width="4"/><circle cx="91.2" cy="80.0" r="14" fill="#D98B3A" stroke="#3B2A1A" stroke-width="4"/><circle cx="78.0" cy="93.2" r="14" fill="#D98B3A" stroke="#3B2A1A" stroke-width="4"/><circle cx="60.0" cy="98.0" r="14" fill="#D98B3A" stroke="#3B2A1A" stroke-width="4"/><circle cx="42.0" cy="93.2" r="14" fill="#D98B3A" stroke="#3B2A1A" stroke-width="4"/><circle cx="28.8" cy="80.0" r="14" fill="#D98B3A" stroke="#3B2A1A" stroke-width="4"/><circle cx="24.0" cy="62.0" r="14" fill="#D98B3A" stroke="#3B2A1A" stroke-width="4"/><circle cx="28.8" cy="44.0" r="14" fill="#D98B3A" stroke="#3B2A1A" stroke-width="4"/><circle cx="42.0" cy="30.8" r="14" fill="#D98B3A" stroke="#3B2A1A" stroke-width="4"/><circle cx="60.0" cy="26.0" r="14" fill="#D98B3A" stroke="#3B2A1A" stroke-width="4"/><circle cx="78.0" cy="30.8" r="14" fill="#D98B3A" stroke="#3B2A1A" stroke-width="4"/><circle cx="91.2" cy="44.0" r="14" fill="#D98B3A" stroke="#3B2A1A" stroke-width="4"/><circle cx="96.0" cy="62.0" r="11" fill="#D98B3A"/><circle cx="91.2" cy="80.0" r="11" fill="#D98B3A"/><circle cx="78.0" cy="93.2" r="11" fill="#D98B3A"/><circle cx="60.0" cy="98.0" r="11" fill="#D98B3A"/><circle cx="42.0" cy="93.2" r="11" fill="#D98B3A"/><circle cx="28.8" cy="80.0" r="11" fill="#D98B3A"/><circle cx="24.0" cy="62.0" r="11" fill="#D98B3A"/><circle cx="28.8" cy="44.0" r="11" fill="#D98B3A"/><circle cx="42.0" cy="30.8" r="11" fill="#D98B3A"/><circle cx="60.0" cy="26.0" r="11" fill="#D98B3A"/><circle cx="78.0" cy="30.8" r="11" fill="#D98B3A"/><circle cx="91.2" cy="44.0" r="11" fill="#D98B3A"/><circle cx="60" cy="62" r="26" fill="#D98B3A"/>
<circle cx="41" cy="40" r="7" fill="#F6C667" stroke="#3B2A1A" stroke-width="4" stroke-linejoin="round"/><circle cx="41" cy="40" r="3" fill="#F7C5C5"/>
<circle cx="79" cy="40" r="7" fill="#F6C667" stroke="#3B2A1A" stroke-width="4" stroke-linejoin="round"/><circle cx="79" cy="40" r="3" fill="#F7C5C5"/>
<circle cx="60" cy="62" r="28" fill="#F6C667" stroke="#3B2A1A" stroke-width="4" stroke-linejoin="round"/>
<ellipse cx="60" cy="76" rx="14" ry="10" fill="#FFF3C4"/>
<path d="M54 70 L66 70 L60 76 Z" fill="#3B2A1A" stroke="#3B2A1A" stroke-width="2.5" stroke-linejoin="round"/>
<path d="M53 80 Q56.5 84 60 80 Q63.5 84 67 80" fill="none" stroke="#3B2A1A" stroke-width="3" stroke-linecap="round"/><circle cx="50" cy="60" r="4" fill="#3B2A1A"/><circle cx="51.4" cy="58.6" r="1.3" fill="#FFFFFF"/><circle cx="70" cy="60" r="4" fill="#3B2A1A"/><circle cx="71.4" cy="58.6" r="1.3" fill="#FFFFFF"/><circle cx="41" cy="70" r="4" fill="#F4A3A3"/><circle cx="79" cy="70" r="4" fill="#F4A3A3"/>
</svg>
